<svg height="300" viewBox="0 0 176 176" width="300" xmlns="http://www.w3.org/2000/svg" version="1.1" xmlns:xlink="http://www.w3.org/1999/xlink" xmlns:svgjs="http://svgjs.dev/svgjs"><g width="100%" height="100%" transform="matrix(1,0,0,1,0,0)"><g id="Layer_2" data-name="Layer 2"><g id="facebook"><path id="icon" d="m152 0h-128a24 24 0 0 0 -24 24v128a24 24 0 0 0 24 24h128a24 24 0 0 0 24-24v-128a24 24 0 0 0 -24-24zm-36.12 77.59-1.77 15.32a2.86 2.86 0 0 1 -2.82 2.57h-16l-.08 45.45a2.05 2.05 0 0 1 -2 2.07h-16.21a2 2 0 0 1 -2-2.08v-45.44h-12a2.87 2.87 0 0 1 -2.84-2.9l-.06-15.33a2.88 2.88 0 0 1 2.84-2.92h12.06v-14.8c0-17.18 10.2-26.53 25.16-26.53h12.26a2.88 2.88 0 0 1 2.85 2.92v12.91a2.88 2.88 0 0 1 -2.85 2.92h-7.52c-8.13 0-9.71 4-9.71 9.77v12.81h17.87a2.89 2.89 0 0 1 2.82 3.26z" fill="#b39359" fill-opacity="1" data-original-color="#000000ff" stroke="none" stroke-opacity="1"/></g></g></g></svg>