<svg id="Layer_1" viewBox="0 0 128 128" xmlns="http://www.w3.org/2000/svg" data-name="Layer 1" width="300" height="300" version="1.1" xmlns:xlink="http://www.w3.org/1999/xlink" xmlns:svgjs="http://svgjs.dev/svgjs"><g width="100%" height="100%" transform="matrix(1,0,0,1,0,0)"><path d="m84 36h-40a8 8 0 0 0 -8 8v40a8 8 0 0 0 8 8h40a8 8 0 0 0 8-8v-40a8 8 0 0 0 -8-8zm-20 44a16 16 0 1 1 16-16 16 16 0 0 1 -16 16zm18-29a5 5 0 1 1 5-5 5 5 0 0 1 -5 5z" fill="#b39359" fill-opacity="1" data-original-color="#000000ff" stroke="none" stroke-opacity="1"/><circle cx="64" cy="64" r="8" fill="#b39359" fill-opacity="1" data-original-color="#000000ff" stroke="none" stroke-opacity="1"/><path d="m104 0h-80a24.07 24.07 0 0 0 -24 24v80a24.07 24.07 0 0 0 24 24h80a24.07 24.07 0 0 0 24-24v-80a24.07 24.07 0 0 0 -24-24zm-4 84a16 16 0 0 1 -16 16h-40a16 16 0 0 1 -16-16v-40a16 16 0 0 1 16-16h40a16 16 0 0 1 16 16z" fill="#b39359" fill-opacity="1" data-original-color="#000000ff" stroke="none" stroke-opacity="1"/></g></svg>