<svg xmlns="http://www.w3.org/2000/svg" id="Layer_1" data-name="Layer 1" viewBox="0 0 512 512" width="300" height="300" version="1.1" xmlns:xlink="http://www.w3.org/1999/xlink" xmlns:svgjs="http://svgjs.dev/svgjs"><g width="100%" height="100%" transform="matrix(1,0,0,1,0,0)"><path d="M494.571,484.769a10.865,10.865,0,0,1-10.852,10.853H28.281a10.853,10.853,0,0,1,0-21.706H483.719A10.865,10.865,0,0,1,494.571,484.769ZM38.109,459.916V52.084H302.158V459.916ZM68.771,103.532h33.785V81.8H68.771Zm33.785,270.729H68.771V395.99h33.785ZM68.771,322.875h33.785V301.147H68.771Zm0-73.114h33.785V228.032H68.771Zm33.785-73.115V154.918H68.771v21.728Zm50.685-73.114h33.785V81.8H153.241Zm33.785,270.729H153.241V395.99h33.785Zm-33.785-51.386h33.785V301.147H153.241Zm0-73.114h33.785V228.032H153.241Zm33.785-73.115V154.918H153.241v21.728Zm50.686-73.114H271.5V81.8H237.712ZM271.5,374.261H237.712V395.99H271.5Zm-33.785-51.386H271.5V301.147H237.712Zm0-73.114H271.5V228.032H237.712ZM271.5,176.646V154.918H237.712v21.728ZM28.281,38.084H311.986a10.853,10.853,0,1,0,0-21.706H28.281a10.853,10.853,0,0,0,0,21.706ZM356.952,139.757a6.992,6.992,0,0,0,1.11.089h106.93a24.346,24.346,0,0,0,18.714-8.718A36.621,36.621,0,0,0,465.06,72.246,34.584,34.584,0,0,0,402,61.817a31.284,31.284,0,0,0-42.227,22.009,28.17,28.17,0,0,0-2.822,55.931ZM448.7,459.916V414.674c22.282-1.539,40.329-14.348,40.329-29.337,0-8.223-5.167-14.319-9.5-17.985a7,7,0,0,1-1.886-8.164,41.741,41.741,0,0,0,3.364-16.689c0-12.255-5-23.435-12.736-28.481a7,7,0,0,1-3.158-6.368c.078-1.088.118-2.174.118-3.23,0-16.846-9.63-31.078-21.03-31.078s-21.03,14.232-21.03,31.078c0,1.241.056,2.5.17,3.84a7,7,0,0,1-2.878,6.271c-7.289,5.26-12,16.238-12,27.968a41.977,41.977,0,0,0,3.136,16.147,7,7,0,0,1-2.057,8.162c-6.561,5.292-10.173,11.873-10.173,18.529,0,14.989,18.048,27.8,40.33,29.337v45.242Zm-53.844,0v-43.2a57.548,57.548,0,0,0,7.157-.962c-10.741-8.123-16.643-18.856-16.643-30.412,0-9.483,4.081-18.577,11.592-26.036a57.224,57.224,0,0,1-2.5-16.8c0-13.5,4.672-26.119,12.492-34.572-2.938-9.441-9.327-15.771-16.334-15.771-9.762,0-18.008,12.353-18.008,26.974,0,1.081.05,2.211.149,3.359a7,7,0,0,1-2.879,6.274c-6.312,4.555-10.391,14.11-10.391,24.341a36.717,36.717,0,0,0,2.738,14.114,7,7,0,0,1-2.056,8.162c-5.672,4.576-8.8,10.239-8.8,15.945,0,12.805,15.355,23.766,34.476,25.354v43.237Z" fill="#b39359" fill-opacity="1" data-original-color="#000000ff" stroke="none" stroke-opacity="1"/></g></svg>