<svg height="512" viewBox="0 0 64 64" width="512" xmlns="http://www.w3.org/2000/svg"><g id="ax"><g><path d="m62 57h-14v-2h.877c2.299 0 4.293-1.558 4.851-3.787l3.053-12.213h.219c1.654 0 3-1.346 3-3s-1.346-3-3-3h-41v-25c0-2.757 2.243-5 5-5s5 2.243 5 5v1c-2.757 0-5 2.243-5 5v2c0 1.103.897 2 2 2h8c1.103 0 2-.897 2-2v-2c0-2.757-2.243-5-5-5v-1c0-3.86-3.14-7-7-7s-7 3.14-7 7v25h-7c-1.654 0-3 1.346-3 3s1.346 3 3 3h.219l3.053 12.212c.557 2.23 2.552 3.788 4.851 3.788h.877v2h-14c-.552 0-1 .448-1 1v4c0 .552.448 1 1 1h60c.552 0 1-.448 1-1v-4c0-.552-.448-1-1-1zm-39-41v-1h8.001v1zm7.816-3h-7.631c.414-1.161 1.514-2 2.816-2h2c1.302 0 2.402.839 2.816 2zm15.184 44h-2.219l-.5-2h2.719zm-4.781-2 .5 2h-19.438l.5-2zm-29.006-4.272-2.932-11.728h37.719c.552 0 1-.448 1-1s-.448-1-1-1h-40c-.551 0-1-.449-1-1s.449-1 1-1h50c.551 0 1 .449 1 1s-.449 1-1 1h-6c-.552 0-1 .448-1 1s.448 1 1 1h3.719l-2.932 11.728c-.334 1.337-1.531 2.272-2.91 2.272h-33.754c-1.379 0-2.576-.935-2.91-2.272zm5.787 4.272h2.719l-.5 2h-2.219zm43 6h-58v-2h58z"/><path d="m26 20v1c0 .552.448 1 1 1s1-.448 1-1v-1c0-.552-.448-1-1-1s-1 .448-1 1z"/><path d="m30 20v1c0 .552.448 1 1 1s1-.448 1-1v-1c0-.552-.448-1-1-1s-1 .448-1 1z"/><path d="m22 20v1c0 .552.448 1 1 1s1-.448 1-1v-1c0-.552-.448-1-1-1s-1 .448-1 1z"/><path d="m60 9h-18c-1.654 0-3 1.346-3 3s1.346 3 3 3h1v8c0 1.654 1.346 3 3 3h10c1.654 0 3-1.346 3-3v-8h1c1.654 0 3-1.346 3-3s-1.346-3-3-3zm-3 11h-12v-9h12zm-15-7c-.551 0-1-.449-1-1s.449-1 1-1h1v2zm14 11h-10c-.551 0-1-.449-1-1v-1h12v1c0 .551-.449 1-1 1zm4-11h-1v-2h1c.551 0 1 .449 1 1s-.449 1-1 1z"/></g></g></svg>