<svg height="300" viewBox="0 0 64 64" width="300" xmlns="http://www.w3.org/2000/svg" version="1.1" xmlns:xlink="http://www.w3.org/1999/xlink" xmlns:svgjs="http://svgjs.dev/svgjs"><g width="100%" height="100%" transform="matrix(1,0,0,1,0,0)"><g id="Real_Estate-Loan-Finance-Property-House" data-name="Real Estate-Loan-Finance-Property-House"><path d="m29 56a1 1 0 0 0 -1 1v2a1 1 0 0 0 1 1h12a1 1 0 0 0 1-1v-2a1 1 0 0 0 -1-1h-1v2h-2v-2h-2v2h-2v-2h-2v2h-2v-2z" fill="#0b2c3d" fill-opacity="1" data-original-color="#000000ff" stroke="none" stroke-opacity="1"/><path d="m26 59v-2a2.974 2.974 0 0 1 .78-2 2.974 2.974 0 0 1 -.78-2v-2a2.974 2.974 0 0 1 .78-2 2.974 2.974 0 0 1 -.78-2v-2a3.009 3.009 0 0 1 3-3h5v-2.83l-.71.11a6.559 6.559 0 0 1 -1.08.09 7.057 7.057 0 0 1 -6.55-4.49l-.67-1.76a1 1 0 0 1 .06-.86 1.03 1.03 0 0 1 .71-.49l1.87-.29a7 7 0 0 1 7.37 3.87 7 7 0 0 1 7.37-3.87l1.87.29a1.052 1.052 0 0 1 .71.49 1 1 0 0 1 .06.86l-.67 1.76a7.057 7.057 0 0 1 -6.55 4.49 6.559 6.559 0 0 1 -1.08-.09l-.71-.11v2.83h5a3.009 3.009 0 0 1 3 3v2a2.923 2.923 0 0 1 -.32 1.32 2.923 2.923 0 0 1 1.32-.32h6v-23.68l-19-16.01-19 16.11v11.63c.33-.03.66-.05 1-.05a10 10 0 0 1 0 20c-.34 0-.67-.02-1-.05v4.05h13.18a3 3 0 0 1 -.18-1z" fill="#0b2c3d" fill-opacity="1" data-original-color="#000000ff" stroke="none" stroke-opacity="1"/><path d="m14 54a8 8 0 1 0 -8-8 8.011 8.011 0 0 0 8 8zm1-7h-2a3 3 0 0 1 0-6v-1h2v1a3 3 0 0 1 3 3h-2a1 1 0 0 0 -1-1h-2a1 1 0 0 0 0 2h2a3 3 0 0 1 0 6v1h-2v-1a3 3 0 0 1 -3-3h2a1 1 0 0 0 1 1h2a1 1 0 0 0 0-2z" fill="#0b2c3d" fill-opacity="1" data-original-color="#000000ff" stroke="none" stroke-opacity="1"/><path d="m57 50h-1v2h-2v-2h-2v2h-2v-2h-2v2h-2v-2h-1a1 1 0 0 0 -1 1v2a1 1 0 0 0 1 1h12a1 1 0 0 0 1-1v-2a1 1 0 0 0 -1-1z" fill="#0b2c3d" fill-opacity="1" data-original-color="#000000ff" stroke="none" stroke-opacity="1"/><path d="m4.07 27.82a1.02 1.02 0 0 0 .7.48.977.977 0 0 0 .81-.22l25.77-21.84a.987.987 0 0 1 1.29 0l25.78 21.72a.988.988 0 0 0 1.4-.13.913.913 0 0 0 .23-.72.948.948 0 0 0 -.35-.68l-27.06-22.59a1 1 0 0 0 -.64-.23 1.047 1.047 0 0 0 -.64.23l-26.98 22.64a1.094 1.094 0 0 0 -.31 1.34z" fill="#0b2c3d" fill-opacity="1" data-original-color="#000000ff" stroke="none" stroke-opacity="1"/><path d="m58 59v-2a1 1 0 0 0 -1-1h-1v2h-2v-2h-2v2h-2v-2h-2v2h-2v-2h-1a1 1 0 0 0 -1 1v2a1 1 0 0 0 1 1h12a1 1 0 0 0 1-1z" fill="#0b2c3d" fill-opacity="1" data-original-color="#000000ff" stroke="none" stroke-opacity="1"/><path d="m42 51a1 1 0 0 0 -1-1h-1v2h-2v-2h-2v2h-2v-2h-2v2h-2v-2h-1a1 1 0 0 0 -1 1v2a1 1 0 0 0 1 1h12a1 1 0 0 0 1-1z" fill="#0b2c3d" fill-opacity="1" data-original-color="#000000ff" stroke="none" stroke-opacity="1"/><path d="m27.94 33.45-.64.1.23.61a5.039 5.039 0 0 0 5.45 3.15l.64-.1-.23-.61a5.039 5.039 0 0 0 -5.45-3.15z" fill="#0b2c3d" fill-opacity="1" data-original-color="#000000ff" stroke="none" stroke-opacity="1"/><path d="m42.47 34.16.23-.61-.64-.1a5.039 5.039 0 0 0 -5.45 3.15l-.23.61.64.1a5.051 5.051 0 0 0 5.45-3.15z" fill="#0b2c3d" fill-opacity="1" data-original-color="#000000ff" stroke="none" stroke-opacity="1"/><path d="m42 45a1 1 0 0 0 -1-1h-1v2h-2v-2h-2v2h-2v-2h-2v2h-2v-2h-1a1 1 0 0 0 -1 1v2a1 1 0 0 0 1 1h12a1 1 0 0 0 1-1z" fill="#0b2c3d" fill-opacity="1" data-original-color="#000000ff" stroke="none" stroke-opacity="1"/></g></g></svg>