<svg xmlns="http://www.w3.org/2000/svg" id="Layer_3" data-name="Layer 3" viewBox="0 0 64 64" width="300" height="300" version="1.1" xmlns:xlink="http://www.w3.org/1999/xlink" xmlns:svgjs="http://svgjs.dev/svgjs"><g width="100%" height="100%" transform="matrix(1,0,0,1,0,0)"><path d="M43.733,29.319l1.427,1.426A16.9,16.9,0,0,0,48.949,21h-2A14.909,14.909,0,0,1,43.733,29.319Z" fill="#b39359" fill-opacity="1" data-original-color="#000000ff" stroke="none" stroke-opacity="1"/><path d="M31,5.051v-2a16.9,16.9,0,0,0-10.275,4.26l1.414,1.414A14.912,14.912,0,0,1,31,5.051Z" fill="#b39359" fill-opacity="1" data-original-color="#000000ff" stroke="none" stroke-opacity="1"/><path d="M20.2,32.212A16.92,16.92,0,0,0,31,36.949v-2a14.932,14.932,0,0,1-9.385-4.15Z" fill="#b39359" fill-opacity="1" data-original-color="#000000ff" stroke="none" stroke-opacity="1"/><path d="M20.725,10.139,19.311,8.725A16.9,16.9,0,0,0,15.051,19h2A14.912,14.912,0,0,1,20.725,10.139Z" fill="#b39359" fill-opacity="1" data-original-color="#000000ff" stroke="none" stroke-opacity="1"/><path d="M20.267,29.319A14.909,14.909,0,0,1,17.051,21h-2a16.9,16.9,0,0,0,3.789,9.745Z" fill="#b39359" fill-opacity="1" data-original-color="#000000ff" stroke="none" stroke-opacity="1"/><path d="M43.275,7.311A16.9,16.9,0,0,0,33,3.051v2a14.912,14.912,0,0,1,8.861,3.674Z" fill="#b39359" fill-opacity="1" data-original-color="#000000ff" stroke="none" stroke-opacity="1"/><path d="M48.949,19a16.9,16.9,0,0,0-4.26-10.275l-1.414,1.414A14.912,14.912,0,0,1,46.949,19Z" fill="#b39359" fill-opacity="1" data-original-color="#000000ff" stroke="none" stroke-opacity="1"/><path d="M45,20A13,13,0,1,0,32,33,13.015,13.015,0,0,0,45,20Zm-6-6H34.974a4.954,4.954,0,0,1,.925,2H39v2H35.9A5.009,5.009,0,0,1,31,22H29.2l5.549,6.341-1.506,1.318-7-8A1,1,0,0,1,27,20h4a3,3,0,0,0,2.816-2H26V16h7.816A3,3,0,0,0,31,14H26V12H39Z" fill="#b39359" fill-opacity="1" data-original-color="#000000ff" stroke="none" stroke-opacity="1"/><path d="M42.385,30.8A14.932,14.932,0,0,1,33,34.949v2a16.92,16.92,0,0,0,10.8-4.737Z" fill="#b39359" fill-opacity="1" data-original-color="#000000ff" stroke="none" stroke-opacity="1"/><path d="M51,51H39a1,1,0,0,0,0,2H51a1,1,0,0,0,0-2Z" fill="#b39359" fill-opacity="1" data-original-color="#000000ff" stroke="none" stroke-opacity="1"/><path d="M57,19a2,2,0,0,0-2,2V31.652a3.819,3.819,0,0,1-.293,5.055l-5,5-1.414-1.414,5-5a1.829,1.829,0,0,0-2.586-2.586L40,43.414V49H50V48a1,1,0,0,1,.257-.669L59,37.616V21A2,2,0,0,0,57,19Z" fill="#b39359" fill-opacity="1" data-original-color="#000000ff" stroke="none" stroke-opacity="1"/><rect x="40" y="55" width="10" height="2" fill="#b39359" fill-opacity="1" data-original-color="#000000ff" stroke="none" stroke-opacity="1"/><path d="M51,59H39a1,1,0,0,0,0,2H51a1,1,0,0,0,0-2Z" fill="#b39359" fill-opacity="1" data-original-color="#000000ff" stroke="none" stroke-opacity="1"/><rect x="14" y="55" width="10" height="2" fill="#b39359" fill-opacity="1" data-original-color="#000000ff" stroke="none" stroke-opacity="1"/><path d="M25,51H13a1,1,0,0,0,0,2H25a1,1,0,0,0,0-2Z" fill="#b39359" fill-opacity="1" data-original-color="#000000ff" stroke="none" stroke-opacity="1"/><path d="M25,59H13a1,1,0,0,0,0,2H25a1,1,0,0,0,0-2Z" fill="#b39359" fill-opacity="1" data-original-color="#000000ff" stroke="none" stroke-opacity="1"/><path d="M14,48v1H24V43.414L13.293,32.707a1.829,1.829,0,0,0-2.586,2.586l5,5-1.414,1.414-5-5A3.819,3.819,0,0,1,9,31.652V21a2,2,0,0,0-4,0V37.616l8.743,9.715A1,1,0,0,1,14,48Z" fill="#b39359" fill-opacity="1" data-original-color="#000000ff" stroke="none" stroke-opacity="1"/></g></svg>