<svg id="Layer_1" enable-background="new 0 0 512 512" height="300" viewBox="0 0 512 512" width="300" xmlns="http://www.w3.org/2000/svg" version="1.1" xmlns:xlink="http://www.w3.org/1999/xlink" xmlns:svgjs="http://svgjs.dev/svgjs"><g width="100%" height="100%" transform="matrix(1,0,0,1,0,0)"><path clip-rule="evenodd" d="m256 23.088c31.222 0 56.533 25.311 56.533 56.533s-25.311 56.533-56.533 56.533-56.533-25.311-56.533-56.533 25.311-56.533 56.533-56.533zm-91 100.824h-138c-2.203 0-4 1.797-4 4v364c0 2.203 1.797 4 4 4h142v-368c0-2.203-1.797-4-4-4zm244-65.521v-35.303c0-3.866 3.134-7 7-7s7 3.134 7 7v35.303h8.456c2.203 0 4 1.797 4 4v26.012h16.126c2.203 0 4 1.797 4 4v17.51h-79.164v-17.51c0-2.203 1.797-4 4-4h16.126v-26.012c0-2.203 1.797-4 4-4zm-348.582 30.012h16.126v-26.012c0-2.203 1.797-4 4-4h8.456v-35.303c0-3.866 3.134-7 7-7s7 3.134 7 7v35.303h8.456c2.203 0 4 1.797 4 4v26.012h16.126c2.203 0 4 1.797 4 4v17.51h-79.164v-17.51c0-2.203 1.797-4 4-4zm53.662 53.683h30.81c2.203 0 4 1.797 4 4v30.81c0 2.203-1.797 4-4 4h-30.81c-2.203 0-4-1.797-4-4v-30.81c0-2.203 1.797-4 4-4zm160 197.208h30.81c2.203 0 4 1.797 4 4v30.81c0 2.203-1.797 4-4 4h-30.81c-2.203 0-4-1.797-4-4v-30.81c0-2.203 1.797-4 4-4zm-66.97 0h30.81c2.203 0 4 1.797 4 4v30.81c0 2.203-1.797 4-4 4h-30.81c-2.203 0-4-1.797-4-4v-30.81c0-2.203 1.797-4 4-4zm66.97-133.347h30.81c2.203 0 4 1.797 4 4v30.81c0 2.203-1.797 4-4 4h-30.81c-2.203 0-4-1.797-4-4v-30.81c0-2.203 1.797-4 4-4zm-66.97 0h30.81c2.203 0 4 1.797 4 4v30.81c0 2.203-1.797 4-4 4h-30.81c-2.203 0-4-1.797-4-4v-30.81c0-2.203 1.797-4 4-4zm66.97 68.08h30.81c2.203 0 4 1.797 4 4v30.81c0 2.203-1.797 4-4 4h-30.81c-2.203 0-4-1.797-4-4v-30.81c0-2.203 1.797-4 4-4zm-66.97 0h30.81c2.203 0 4 1.797 4 4v30.81c0 2.203-1.797 4-4 4h-30.81c-2.203 0-4-1.797-4-4v-30.81c0-2.203 1.797-4 4-4zm226.97-131.941h30.81c2.203 0 4 1.797 4 4v30.81c0 2.203-1.797 4-4 4h-30.81c-2.203 0-4-1.797-4-4v-30.81c0-2.203 1.797-4 4-4zm0 263.881h30.81c2.203 0 4 1.797 4 4v30.81c0 2.203-1.797 4-4 4h-30.81c-2.203 0-4-1.797-4-4v-30.81c0-2.203 1.797-4 4-4zm0-66.673h30.81c2.203 0 4 1.797 4 4v30.81c0 2.203-1.797 4-4 4h-30.81c-2.203 0-4-1.797-4-4v-30.81c0-2.203 1.797-4 4-4zm0-66.674h30.81c2.203 0 4 1.797 4 4v30.81c0 2.203-1.797 4-4 4h-30.81c-2.203 0-4-1.797-4-4v-30.81c0-2.203 1.797-4 4-4zm-66.97 133.347h30.81c2.203 0 4 1.797 4 4v30.81c0 2.203-1.797 4-4 4h-30.81c-2.203 0-4-1.797-4-4v-30.81c0-2.203 1.797-4 4-4zm0-66.673h30.81c2.203 0 4 1.797 4 4v30.81c0 2.203-1.797 4-4 4h-30.81c-2.203 0-4-1.797-4-4v-30.81c0-2.203 1.797-4 4-4zm0-66.674h30.81c2.203 0 4 1.797 4 4v30.81c0 2.203-1.797 4-4 4h-30.81c-2.203 0-4-1.797-4-4v-30.81c0-2.203 1.797-4 4-4zm66.97-66.673h30.81c2.203 0 4 1.797 4 4v30.81c0 2.203-1.797 4-4 4h-30.81c-2.203 0-4-1.797-4-4v-30.81c0-2.203 1.797-4 4-4zm-66.97 0h30.81c2.203 0 4 1.797 4 4v30.81c0 2.203-1.797 4-4 4h-30.81c-2.203 0-4-1.797-4-4v-30.81c0-2.203 1.797-4 4-4zm0-63.861h30.81c2.203 0 4 1.797 4 4v30.81c0 2.203-1.797 4-4 4h-30.81c-2.203 0-4-1.797-4-4v-30.81c0-2.203 1.797-4 4-4zm-253.03 263.881h30.81c2.203 0 4 1.797 4 4v30.81c0 2.203-1.797 4-4 4h-30.81c-2.203 0-4-1.797-4-4v-30.81c0-2.203 1.797-4 4-4zm0-66.673h30.81c2.203 0 4 1.797 4 4v30.81c0 2.203-1.797 4-4 4h-30.81c-2.203 0-4-1.797-4-4v-30.81c0-2.203 1.797-4 4-4zm0-66.674h30.81c2.203 0 4 1.797 4 4v30.81c0 2.203-1.797 4-4 4h-30.81c-2.203 0-4-1.797-4-4v-30.81c0-2.203 1.797-4 4-4zm-66.97 133.347h30.81c2.203 0 4 1.797 4 4v30.81c0 2.203-1.797 4-4 4h-30.81c-2.203 0-4-1.797-4-4v-30.81c0-2.203 1.797-4 4-4zm0-66.673h30.81c2.203 0 4 1.797 4 4v30.81c0 2.203-1.797 4-4 4h-30.81c-2.203 0-4-1.797-4-4v-30.81c0-2.203 1.797-4 4-4zm0-66.674h30.81c2.203 0 4 1.797 4 4v30.81c0 2.203-1.797 4-4 4h-30.81c-2.203 0-4-1.797-4-4v-30.81c0-2.203 1.797-4 4-4zm66.97-66.673h30.81c2.203 0 4 1.797 4 4v30.81c0 2.203-1.797 4-4 4h-30.81c-2.203 0-4-1.797-4-4v-30.81c0-2.203 1.797-4 4-4zm-66.97 0h30.81c2.203 0 4 1.797 4 4v30.81c0 2.203-1.797 4-4 4h-30.81c-2.203 0-4-1.797-4-4v-30.81c0-2.203 1.797-4 4-4zm0-63.861h30.81c2.203 0 4 1.797 4 4v30.81c0 2.203-1.797 4-4 4h-30.81c-2.203 0-4-1.797-4-4v-30.81c0-2.203 1.797-4 4-4zm215.89 270.881v82.945h38.89v-82.945zm-14 82.945v-82.945h-37.231-1.659v82.945zm-45.89-96.945h105.78c3.866 0 7 3.134 7 7v89.945h13.11v-309.899h-146v309.898h13.11v-89.945c0-3.865 3.134-6.999 7-6.999zm139.89 96.945h142c2.203 0 4-1.797 4-4v-364c0-2.203-1.797-4-4-4h-138c-2.203 0-4 1.797-4 4zm-104.502-389.644c3.211 3.03 6.397 5.499 10.661 6.798l.048 1.981c.09 3.851 3.286 6.899 7.137 6.809s6.899-3.286 6.809-7.137l-.043-1.794c8.564-2.704 15.089-10.252 15.089-19.482 0-11.968-10.689-20.573-22.199-20.573-3.777 0-8.199-2.362-8.199-6.572s4.422-6.6 8.199-6.6c2.352 0 5.981.571 7.66 3.127 2.114 3.217 6.436 4.11 9.653 1.996 3.216-2.114 4.11-6.436 1.996-9.653-2.648-4.029-7.89-6.83-12.45-8.236l-.065-2.739c-.09-3.851-3.286-6.899-7.137-6.808-3.851.09-6.899 3.286-6.809 7.137l.055 2.29c-8.569 2.701-15.101 10.252-15.101 19.486 0 11.968 10.689 20.572 22.199 20.572 3.777 0 8.199 2.362 8.199 6.572 0 4.209-4.422 6.572-8.199 6.572-3.734 0-5.316-1.451-7.931-3.919-2.809-2.643-7.228-2.508-9.871.301-2.644 2.81-2.51 7.229.299 9.872z" fill-rule="evenodd" fill="#b39359" fill-opacity="1" data-original-color="#000000ff" stroke="none" stroke-opacity="1"/></g></svg>