<svg xmlns="http://www.w3.org/2000/svg" xmlns:xlink="http://www.w3.org/1999/xlink" version="1.1" id="Layer_1" x="0px" y="0px" viewBox="0 0 59.953 60" style="enable-background:new 0 0 59.953 60;" xml:space="preserve" width="300" height="300" xmlns:svgjs="http://svgjs.dev/svgjs"><g width="100%" height="100%" transform="matrix(1,0,0,1,0,0)"><g id="_x37_-House">
	<g>
		<path d="M45.03,23.584V17h-2.083C42.902,18.355,43.095,21.113,45.03,23.584z" fill="#b39359" fill-opacity="1" data-original-color="#000000ff" stroke="none" stroke-opacity="1"/>
		<path d="M15.03,17v6.578c1.914-2.462,2.115-5.226,2.078-6.578H15.03z" fill="#b39359" fill-opacity="1" data-original-color="#000000ff" stroke="none" stroke-opacity="1"/>
		<path d="M25.03,23.584V17h-2.083C22.902,18.355,23.096,21.113,25.03,23.584z" fill="#b39359" fill-opacity="1" data-original-color="#000000ff" stroke="none" stroke-opacity="1"/>
		<path d="M19.11,17c0.044,1.722-0.244,5.05-2.655,8h7.15c-2.411-2.95-2.7-6.278-2.656-8H19.11z" fill="#b39359" fill-opacity="1" data-original-color="#000000ff" stroke="none" stroke-opacity="1"/>
		<path d="M39.11,17c0.044,1.722-0.244,5.05-2.655,8h7.15c-2.412-2.95-2.7-6.278-2.656-8H39.11z" fill="#b39359" fill-opacity="1" data-original-color="#000000ff" stroke="none" stroke-opacity="1"/>
		<path d="M35.03,17v6.578c1.914-2.462,2.115-5.226,2.078-6.578H35.03z" fill="#b39359" fill-opacity="1" data-original-color="#000000ff" stroke="none" stroke-opacity="1"/>
		<path d="M57.022,55.272C56.904,53.448,55.383,52,53.529,52c-0.171,0-0.335,0.023-0.5,0.047V37h2c0.552,0,1-0.448,1-1v-4    c0-0.552-0.448-1-1-1h-2V10h2c0.552,0,1-0.448,1-1V5c0-0.552-0.448-1-1-1h-4V1c0-0.552-0.448-1-1-1h-40c-0.552,0-1,0.448-1,1v3h-4    c-0.552,0-1,0.448-1,1v4c0,0.552,0.448,1,1,1h2v21h-2c-0.552,0-1,0.448-1,1v4c0,0.552,0.448,1,1,1h2v15.049    C6.864,52.025,6.7,52,6.529,52c-1.802,0-3.29,1.369-3.479,3.122c-0.622,0.157-1.202,0.462-1.688,0.897    C0.515,56.777,0.029,57.864,0.029,59c0,0.552,0.448,1,1,1h10.953h19.047V42c0-0.552,0.448-1,1-1h12c0.552,0,1,0.448,1,1v18h3    h10.953c0.29,0,0.566-0.126,0.756-0.346c0.19-0.219,0.275-0.51,0.234-0.797C59.731,57.188,58.569,55.819,57.022,55.272z M11.03,2    h38v2h-38V2z M6.03,6h4h40h4v2h-2h-44h-2V6z M28.03,25c0.552,0,1,0.448,1,1s-0.448,1-1,1h-2h-12h-2c-0.552,0-1-0.448-1-1    s0.448-1,1-1h1v-9c0-0.552,0.448-1,1-1h4h4h4c0.552,0,1,0.448,1,1v9H28.03z M48.03,25c0.552,0,1,0.448,1,1s-0.448,1-1,1h-2h-12h-2    c-0.552,0-1-0.448-1-1s0.448-1,1-1h1v-9c0-0.552,0.448-1,1-1h4h4h4c0.552,0,1,0.448,1,1v9H48.03z M6.03,33h2h44h2v2h-2h-44h-2V33z     M2.696,57.509C3.052,57.191,3.508,57.011,3.985,57c0.025,0.002,0.049,0.004,0.068,0.004c0.304,0.013,0.598-0.123,0.794-0.357    s0.274-0.545,0.213-0.844c-0.021-0.099-0.031-0.201-0.031-0.304c0-0.827,0.673-1.5,1.5-1.5c0.572,0,1.11,0.35,1.354,0.866    c0.134,0.284,0.173,0.605,0.12,0.914c-0.051,0.302-0.037,0.58,0.146,0.84c0.162,0.23,0.414,0.381,0.693,0.417    c0.624,0.078,1.223,0.416,1.616,0.906c0.016,0.02,0.035,0.038,0.051,0.058H2.298C2.403,57.818,2.537,57.652,2.696,57.509z     M28.03,53h-2h-12h-2c-0.552,0-1-0.448-1-1s0.448-1,1-1h1v-9c0-0.552,0.448-1,1-1h4h4h4c0.552,0,1,0.448,1,1v9h1    c0.552,0,1,0.448,1,1S28.582,53,28.03,53z M49.311,58c0.011-0.019,0.021-0.037,0.032-0.055c0.099-0.158,0.212-0.309,0.354-0.435    c0.355-0.318,0.812-0.498,1.288-0.509c0.025,0.002,0.05,0.004,0.069,0.004c0.304,0.019,0.598-0.123,0.794-0.357    s0.275-0.545,0.213-0.844C51.875,54.901,52.61,54,53.53,54c0.827,0,1.5,0.673,1.5,1.5c0,0.1-0.013,0.207-0.04,0.327    c-0.061,0.274-0.003,0.562,0.158,0.792c0.162,0.23,0.414,0.381,0.693,0.417c0.68,0.085,1.275,0.445,1.671,0.964L49.311,58    L49.311,58z" fill="#b39359" fill-opacity="1" data-original-color="#000000ff" stroke="none" stroke-opacity="1"/>
		<path d="M33.03,60h10v-8h-2c-0.552,0-1-0.448-1-1s0.448-1,1-1h2v-7h-10V60z" fill="#b39359" fill-opacity="1" data-original-color="#000000ff" stroke="none" stroke-opacity="1"/>
		<path d="M19.11,43c0.044,1.722-0.244,5.05-2.655,8h7.15c-2.411-2.95-2.7-6.278-2.656-8H19.11z" fill="#b39359" fill-opacity="1" data-original-color="#000000ff" stroke="none" stroke-opacity="1"/>
		<path d="M25.03,49.584V43h-2.083C22.902,44.355,23.096,47.113,25.03,49.584z" fill="#b39359" fill-opacity="1" data-original-color="#000000ff" stroke="none" stroke-opacity="1"/>
		<path d="M15.03,43v6.578c1.914-2.462,2.115-5.226,2.078-6.578H15.03z" fill="#b39359" fill-opacity="1" data-original-color="#000000ff" stroke="none" stroke-opacity="1"/>
	</g>
</g></g></svg>