<svg id="Layer_1" enable-background="new 0 0 512 512" viewBox="0 0 512 512" xmlns="http://www.w3.org/2000/svg" width="300" height="300" version="1.1" xmlns:xlink="http://www.w3.org/1999/xlink" xmlns:svgjs="http://svgjs.dev/svgjs"><g width="100%" height="100%" transform="matrix(1,0,0,1,0,0)"><path clip-rule="evenodd" d="m183 62h150.1l-75-54.5zm305.4 118.1-43.5-35.6v74.3zm2.4 320.2-195.2-151.9c-12.5-9.1-26.8-13.6-41.1-13.6-14.2.1-28.5 4.7-40.8 13.8l-194.3 150.7c5.7 3.3 12.3 5.2 19.3 5.2h434.4c6.4.1 12.4-1.5 17.7-4.2zm-166.6-151.3 177.3-157.8c2.8 3 5.1 6.3 6.8 10 2.3 5 3.7 10.5 3.7 16.4v248c0 8.7-2.9 16.8-7.9 23.3zm-128.3-8-129.9-110.9v-112.9c0-10.5 4.3-20 11.2-27 6.9-6.9 16.5-11.2 27-11.2h285.5c10.5 0 20 4.3 27 11.2 6.9 6.9 11.2 16.5 11.2 27v116.8l-117.4 104.4-4.4-3.4-.2-.1c-15.5-11.4-33.4-17.1-51.3-17-17.8.1-35.6 5.8-51 17.2-.1.1-.3.2-.4.3zm-189.1 146.6c-4.3-6.2-6.8-13.7-6.8-21.8v-248c0-6.5 1.6-12.6 4.4-17.9l177.7 151.8zm262.4-307.9c-.9-7.7-4.4-14.2-10.1-17.6-.2-.1-.4-.2-.6-.3-5.9-3.2-13.2-2.9-20.4.2-8 3.5-15.6 10.3-21.1 19.7-.1.2-.2.4-.3.6-5.4 9.5-7.4 19.6-6.3 28.2 1 7.8 4.5 14.4 10.4 17.8 5.9 3.4 13.4 3.1 20.6 0 8.1-3.5 15.8-10.4 21.3-20 5.5-9.6 7.6-19.8 6.5-28.6zm34.6 71.4c-6.2 6.3-14.3 10.8-23.3 14-10.7 3.7-22.5 5.4-33.7 5.5h-.6c-20.7 0-39.4-8.4-52.9-22-13.6-13.6-22.1-32.4-22.2-53.1v-.6c0-20.9 8.5-39.9 22.2-53.6s32.7-22.2 53.6-22.2c19.8 0 38.6 7.6 52.5 20 13.5 12.1 22.5 28.6 23.4 47.1.5 10.5-9.2 28-19.8 37.4-3.2 2.9-6.2 4.8-8.5 5-.7.1-1.5-.6-2.4-2.3-4.7-9.2-5.4-31.5 2.2-74.8.8-4.6-2.3-9.1-6.9-9.9s-9.1 2.3-9.9 6.9c-.4 2.1-.7 4.1-1.1 6.2-2.6-3-5.6-5.5-9.1-7.5-10.8-6.2-23.7-6.1-35.8-.8-11.3 4.9-22 14.3-29.3 27.1-7.4 12.8-10.1 26.8-8.6 39 1.6 13 7.9 24.1 18.5 30.3.3.2.5.3.8.5 10.7 6 23.5 5.8 35.4.6 9.3-4 18.2-11.2 25.2-20.7.9 4.4 2.1 8 3.5 10.8 4.5 8.9 11.2 12.2 18.9 11.6 6.2-.5 12.6-4 18.5-9.3 13.6-12.2 26.2-35.9 25.4-50.9-1.2-23.3-12.3-44.1-29.1-59-17-15.1-39.7-24.4-63.8-24.4-25.6 0-48.8 10.4-65.6 27.2s-27.2 40-27.2 65.6v.7c.2 25.4 10.5 48.4 27.2 65.1s39.6 27.1 65 27.1h.7c13.1-.1 26.8-2.1 39.3-6.4 11.3-4 21.7-9.9 29.8-18.1 3.3-3.4 3.3-8.7-.1-12-3.5-3.5-8.9-3.4-12.2-.1zm-254.8-35.6v-55.2l-31.7 25.2c-.1.1-.3.2-.5.3-.5.3-1 .7-1.4 1z" fill-rule="evenodd" fill="#b39359" fill-opacity="1" data-original-color="#000000ff" stroke="none" stroke-opacity="1"/></g></svg>