<svg id="Sales" height="300" viewBox="0 0 64 64" width="300" xmlns="http://www.w3.org/2000/svg" version="1.1" xmlns:xlink="http://www.w3.org/1999/xlink" xmlns:svgjs="http://svgjs.dev/svgjs"><g width="100%" height="100%" transform="matrix(1,0,0,1,0,0)"><path d="m15.9 4h-3.9v3.9a5.01 5.01 0 0 0 3.9-3.9z" fill="#32428b" fill-opacity="1" data-original-color="#000000ff" stroke="none" stroke-opacity="1"/><path d="m44 13.9v-3.9h-3.9a5.01 5.01 0 0 0 3.9 3.9z" fill="#32428b" fill-opacity="1" data-original-color="#000000ff" stroke="none" stroke-opacity="1"/><path d="m26 40h-1v1a1 1 0 0 1 -2 .08l-.75-9.31a2.957 2.957 0 0 0 -5.86-.34l-.92 4.41a5.971 5.971 0 0 1 -3.19 4.14l-1.28.64v17.6l7.12 1.78h7.88a6 6 0 0 0 6-6v-8a6 6 0 0 0 -6-6z" fill="#32428b" fill-opacity="1" data-original-color="#000000ff" stroke="none" stroke-opacity="1"/><path d="m7.9 10h-3.9v3.9a5.01 5.01 0 0 0 3.9-3.9z" fill="#32428b" fill-opacity="1" data-original-color="#000000ff" stroke="none" stroke-opacity="1"/><circle cx="24" cy="19" r="4" fill="#32428b" fill-opacity="1" data-original-color="#000000ff" stroke="none" stroke-opacity="1"/><path d="m4 24.1v3.9h3.9a5.01 5.01 0 0 0 -3.9-3.9z" fill="#32428b" fill-opacity="1" data-original-color="#000000ff" stroke="none" stroke-opacity="1"/><path d="m52 7.9v-3.9h-3.9a5.01 5.01 0 0 0 3.9 3.9z" fill="#32428b" fill-opacity="1" data-original-color="#000000ff" stroke="none" stroke-opacity="1"/><path d="m4 38h5v22h-5z" fill="#32428b" fill-opacity="1" data-original-color="#000000ff" stroke="none" stroke-opacity="1"/><path d="m52 22v-3.9a5.01 5.01 0 0 0 -3.9 3.9z" fill="#32428b" fill-opacity="1" data-original-color="#000000ff" stroke="none" stroke-opacity="1"/><path d="m44 8a2.006 2.006 0 0 1 2 2v12h.08a7 7 0 0 1 5.92-5.92v-6.16a7 7 0 0 1 -5.92-5.92h-28.16a6.968 6.968 0 0 1 -2.03 4z" fill="#32428b" fill-opacity="1" data-original-color="#000000ff" stroke="none" stroke-opacity="1"/><path d="m38 44h18v4h-18z" fill="#32428b" fill-opacity="1" data-original-color="#000000ff" stroke="none" stroke-opacity="1"/><path d="m42 50h18v4h-18z" fill="#32428b" fill-opacity="1" data-original-color="#000000ff" stroke="none" stroke-opacity="1"/><path d="m38 56h18v4h-18z" fill="#32428b" fill-opacity="1" data-original-color="#000000ff" stroke="none" stroke-opacity="1"/><path d="m46 42a9 9 0 1 0 -9-9 9.014 9.014 0 0 0 9 9zm0-16a7 7 0 1 1 -7 7 7.009 7.009 0 0 1 7-7z" fill="#32428b" fill-opacity="1" data-original-color="#000000ff" stroke="none" stroke-opacity="1"/><path d="m44 22.19v-6.27a7 7 0 0 1 -5.92-5.92h-28.16a7 7 0 0 1 -5.92 5.92v6.16a7 7 0 0 1 5.92 5.92h6.42a4.932 4.932 0 0 1 2.96-1 4.873 4.873 0 0 1 2.94 1h13.97a11.043 11.043 0 0 1 7.79-5.81zm-20 2.81a6 6 0 1 1 6-6 6.006 6.006 0 0 1 -6 6z" fill="#32428b" fill-opacity="1" data-original-color="#000000ff" stroke="none" stroke-opacity="1"/><circle cx="46" cy="33" r="5" fill="#32428b" fill-opacity="1" data-original-color="#000000ff" stroke="none" stroke-opacity="1"/></g></svg>