<svg id="Layer_1" enable-background="new 0 0 450 450" height="300" viewBox="0 0 450 450" width="300" xmlns="http://www.w3.org/2000/svg" version="1.1" xmlns:xlink="http://www.w3.org/1999/xlink" xmlns:svgjs="http://svgjs.dev/svgjs"><g width="100%" height="100%" transform="matrix(1,0,0,1,0,0)"><g><g><g><g id="XMLID_1_"><path d="m306.4 390.1h26.3v42h-26.3z" fill="#b39359" fill-opacity="1" data-original-color="#000000ff" stroke="none" stroke-opacity="1"/><path d="m153.9 390.1h142.3v42h-142.3z" fill="#b39359" fill-opacity="1" data-original-color="#000000ff" stroke="none" stroke-opacity="1"/><path d="m117.3 390.1h26.3v42h-26.3z" fill="#b39359" fill-opacity="1" data-original-color="#000000ff" stroke="none" stroke-opacity="1"/><path d="m105.8 293.4v51.9h-30.7v-51.9c0-8.5 6.9-15.4 15.4-15.4 8.4 0 15.3 6.9 15.3 15.4z" fill="#b39359" fill-opacity="1" data-original-color="#000000ff" stroke="none" stroke-opacity="1"/><path d="m75.1 355.5h299.9v24.4h-299.9z" fill="#b39359" fill-opacity="1" data-original-color="#000000ff" stroke="none" stroke-opacity="1"/><path d="m375 339v6.3h-236.3v-6.3c0-3.5 2.8-6.3 6.3-6.3h223.7c3.4 0 6.3 2.8 6.3 6.3z" fill="#b39359" fill-opacity="1" data-original-color="#000000ff" stroke="none" stroke-opacity="1"/><path d="m440 230.1v202h-97v-42h37.1c2.8 0 5.1-2.3 5.1-5.1v-46c0-9.1-7.4-16.5-16.5-16.5h-223.7c-9.1 0-16.5 7.4-16.5 16.5v6.3h-12.5v-51.9c0-14.1-11.5-25.6-25.6-25.6s-25.6 11.5-25.6 25.6v91.6c0 2.8 2.3 5.1 5.1 5.1h37.1v42h-97v-202z" fill="#b39359" fill-opacity="1" data-original-color="#000000ff" stroke="none" stroke-opacity="1"/><path d="m306.4 177.9h26.3v42h-26.3z" fill="#b39359" fill-opacity="1" data-original-color="#000000ff" stroke="none" stroke-opacity="1"/><path d="m117.3 177.9h26.3v42h-26.3z" fill="#b39359" fill-opacity="1" data-original-color="#000000ff" stroke="none" stroke-opacity="1"/><path d="m153.9 177.9h142.3v42h-142.3z" fill="#b39359" fill-opacity="1" data-original-color="#000000ff" stroke="none" stroke-opacity="1"/><path d="m75.1 143.2h299.9v24.4h-299.9z" fill="#b39359" fill-opacity="1" data-original-color="#000000ff" stroke="none" stroke-opacity="1"/><path d="m375 126.7v6.3h-236.3v-6.3c0-3.4 2.8-6.3 6.3-6.3h223.7c3.4.1 6.3 2.9 6.3 6.3z" fill="#b39359" fill-opacity="1" data-original-color="#000000ff" stroke="none" stroke-opacity="1"/><path d="m105.8 81.2v51.8h-30.7v-51.8c0-8.5 6.9-15.4 15.4-15.4 8.4 0 15.3 6.9 15.3 15.4z" fill="#b39359" fill-opacity="1" data-original-color="#000000ff" stroke="none" stroke-opacity="1"/><path d="m440 73.4v146.5h-97v-42h37.1c2.8 0 5.1-2.3 5.1-5.1v-46c0-9.1-7.4-16.5-16.5-16.5h-223.7c-9.1 0-16.5 7.4-16.5 16.5v6.3h-12.5v-52c0-14.1-11.5-25.6-25.6-25.6s-25.6 11.5-25.6 25.6v91.6c0 2.8 2.3 5.1 5.1 5.1h37.1v42h-97v-146.4c0-30.6 24.9-55.5 55.5-55.5h319c30.6 0 55.5 24.9 55.5 55.5z" fill="#b39359" fill-opacity="1" data-original-color="#000000ff" stroke="none" stroke-opacity="1"/></g></g></g></g></g></svg>