<svg id="Room" viewBox="0 0 64 64" xmlns="http://www.w3.org/2000/svg" width="300" height="300" version="1.1" xmlns:xlink="http://www.w3.org/1999/xlink" xmlns:svgjs="http://svgjs.dev/svgjs"><g width="100%" height="100%" transform="matrix(1,0,0,1,0,0)"><path d="m58 40.1v-6.1c0-2.21-1.79-4-4-4h-13c-1.2 0-2.27.54-3 1.38-.73-.84-1.8-1.38-3-1.38h-13c-2.21 0-4 1.79-4 4v6.1c-2.28.47-4 2.49-4 4.9v16c0 .55.45 1 1 1h46c.55 0 1-.45 1-1v-16c0-2.41-1.72-4.43-4-4.9zm-24 8.9c1.65 0 3 1.35 3 3h-13v-3zm-12 11h-6v-15c0-1.65 1.35-3 3-3s3 1.35 3 3zm30-8h-13c0-1.65 1.35-3 3-3h10zm8 8h-6v-15c0-1.65 1.35-3 3-3s3 1.35 3 3z" fill="#b39359" fill-opacity="1" data-original-color="#000000ff" stroke="none" stroke-opacity="1"/><path d="m10 6h-6c-1.1 0-2 .9-2 2v10c0 1.1.9 2 2 2h2v36h-1c-1.65 0-3 1.35-3 3v2c0 .55.45 1 1 1h8c.55 0 1-.45 1-1v-2c0-1.65-1.35-3-3-3h-1v-36h2c1.1 0 2-.9 2-2v-10c0-1.1-.9-2-2-2z" fill="#b39359" fill-opacity="1" data-original-color="#000000ff" stroke="none" stroke-opacity="1"/><path d="m21 26h34c1.65 0 3-1.35 3-3v-14c0-1.65-1.35-3-3-3h-34c-1.65 0-3 1.35-3 3v14c0 1.65 1.35 3 3 3zm-1-17c0-.55.45-1 1-1h34c.55 0 1 .45 1 1v5.47c-1.92-1.71-3.99-2.53-6.19-2.44-3.92.17-7.09 3.25-8.63 5.07l-2.29-4.55c-.14-.29-.43-.49-.75-.54-.32-.04-.65.07-.87.31-4.24 4.57-8.24 6.8-11.89 6.67-2.97-.11-4.8-1.77-5.38-2.39z" fill="#b39359" fill-opacity="1" data-original-color="#000000ff" stroke="none" stroke-opacity="1"/></g></svg>