<svg height="300" viewBox="0 0 128 128" width="300" xmlns="http://www.w3.org/2000/svg" version="1.1" xmlns:xlink="http://www.w3.org/1999/xlink" xmlns:svgjs="http://svgjs.dev/svgjs"><g width="100%" height="100%" transform="matrix(1,0,0,1,0,0)"><g id="_15" data-name="15"><path d="m69.90918 41.77905 10.68848 1.55274-7.73438 7.53906a1.50167 1.50167 0 0 0 -.43164 1.32764l1.82617 10.645-9.55957-5.02588a1.50041 1.50041 0 0 0 -1.39648 0l-9.55957 5.02588 1.82617-10.645a1.50167 1.50167 0 0 0 -.43164-1.32764l-7.73438-7.53906 10.68848-1.55274a1.49849 1.49849 0 0 0 1.12891-.82031l4.78027-9.68555 4.78027 9.68555a1.49849 1.49849 0 0 0 1.12891.82031zm25.93262 20.66065-23.80371 41.23a9.28176 9.28176 0 0 1 -16.07618 0l-23.80371-41.23a36.76747 36.76747 0 0 1 31.8418-55.15235 36.76747 36.76747 0 0 1 31.8418 55.15235zm-10.59375-20.6187a1.50139 1.50139 0 0 0 -1.21094-1.021l-12.916-1.87647-5.77638-11.70353a1.49957 1.49957 0 0 0 -2.68946 0l-5.77636 11.70358-12.916 1.87647a1.49985 1.49985 0 0 0 -.83105 2.55859l9.34666 9.11036-2.207 12.8628a1.50029 1.50029 0 0 0 2.17676 1.582l11.55172-6.07371 11.55176 6.07373a1.50029 1.50029 0 0 0 2.17676-1.582l-2.207-12.8628 9.34668-9.11035a1.49871 1.49871 0 0 0 .37985-1.53767zm-2.25641 48.87559-8.3559 14.47309a12.28187 12.28187 0 0 1 -21.27246 0l-8.35486-14.47187c-19.12719 1.6587-39.50842 6.29566-39.50842 14.61249 0 10.00391 30.14063 15.40235 58.5 15.40235s58.5-5.39844 58.5-15.40235c0-8.31482-20.43256-12.95916-39.50836-14.61371z" fill="#b39359" fill-opacity="1" data-original-color="#000000ff" stroke="none" stroke-opacity="1"/></g></g></svg>