<svg xmlns="http://www.w3.org/2000/svg" id="Solid" viewBox="0 0 64 64" width="300" height="300" version="1.1" xmlns:xlink="http://www.w3.org/1999/xlink" xmlns:svgjs="http://svgjs.dev/svgjs"><g width="100%" height="100%" transform="matrix(1,0,0,1,0,0)"><path d="M44,23A11,11,0,1,0,33,12,11,11,0,0,0,44,23ZM44,3.25A8.75,8.75,0,1,1,35.25,12,8.76,8.76,0,0,1,44,3.25Z" fill="#b39359" fill-opacity="1" data-original-color="#000000ff" stroke="none" stroke-opacity="1"/><path d="M37,12.75h-.211a7.215,7.215,0,0,0,1.585,3.815l.146-.145a.75.75,0,0,1,1.06,1.06l-.145.146a7.215,7.215,0,0,0,3.815,1.585V19a.75.75,0,0,1,.75-.75h0a.75.75,0,0,1,.75.75v.211a7.218,7.218,0,0,0,3.815-1.585l-.145-.146a.75.75,0,0,1,1.06-1.06l.146.145a7.215,7.215,0,0,0,1.585-3.815H51a.75.75,0,0,1-.75-.75h0a.75.75,0,0,1,.75-.75h.211a7.218,7.218,0,0,0-1.585-3.815l-.146.145a.75.75,0,0,1-1.06-1.06l.145-.146A7.218,7.218,0,0,0,44.75,4.789V5a.75.75,0,0,1-.75.75h0A.75.75,0,0,1,43.25,5V4.789a7.215,7.215,0,0,0-3.815,1.585l.145.146a.75.75,0,0,1-1.06,1.06l-.146-.145a7.218,7.218,0,0,0-1.585,3.815H37a.75.75,0,0,1,.75.75h0A.75.75,0,0,1,37,12.75Zm4.349.841,1.9-1.9V8A.75.75,0,0,1,44,7.25h0a.75.75,0,0,1,.75.75v4a.747.747,0,0,1-.22.53l-2.121,2.121a.75.75,0,0,1-1.06-1.06Z" fill="#b39359" fill-opacity="1" data-original-color="#000000ff" stroke="none" stroke-opacity="1"/><path d="M42.25,52.375h21.5V45.5H42.25ZM51,47h4a.75.75,0,0,1,0,1.5H51A.75.75,0,0,1,51,47Z" fill="#b39359" fill-opacity="1" data-original-color="#000000ff" stroke="none" stroke-opacity="1"/><path d="M60.75,63a.75.75,0,0,0,.75.75H63a.75.75,0,0,0,.75-.75v-.75h-3Z" fill="#b39359" fill-opacity="1" data-original-color="#000000ff" stroke="none" stroke-opacity="1"/><path d="M42.25,63a.75.75,0,0,0,.75.75h1.5a.75.75,0,0,0,.75-.75v-.75h-3Z" fill="#b39359" fill-opacity="1" data-original-color="#000000ff" stroke="none" stroke-opacity="1"/><path d="M42.25,60.75h21.5V53.875H42.25ZM51,55.375h4a.75.75,0,0,1,0,1.5H51a.75.75,0,0,1,0-1.5Z" fill="#b39359" fill-opacity="1" data-original-color="#000000ff" stroke="none" stroke-opacity="1"/><path d="M.25,63a.75.75,0,0,0,.75.75H2.5A.75.75,0,0,0,3.25,63V45.5h-3Z" fill="#b39359" fill-opacity="1" data-original-color="#000000ff" stroke="none" stroke-opacity="1"/><path d="M55.25,26.308v2.257a3.071,3.071,0,0,0-.366-.447,4.7,4.7,0,0,0-3.263-1.113.654.654,0,0,0-.616.616,4.714,4.714,0,0,0,1.113,3.263A4.584,4.584,0,0,0,55.225,32h.025v1.5h1.5V32h.025a4.584,4.584,0,0,0,3.107-1.116A4.714,4.714,0,0,0,61,27.621a.654.654,0,0,0-.616-.616,4.7,4.7,0,0,0-3.263,1.113,3.071,3.071,0,0,0-.366.447V26.308A5.136,5.136,0,0,0,58.25,23a5.417,5.417,0,0,0-1.75-3.559.749.749,0,0,0-1,0A5.417,5.417,0,0,0,53.75,23,5.136,5.136,0,0,0,55.25,26.308Z" fill="#b39359" fill-opacity="1" data-original-color="#000000ff" stroke="none" stroke-opacity="1"/><path d="M52.65,35a.75.75,0,0,0-.736.9l.671,3.352h6.83l.671-3.352a.75.75,0,0,0-.736-.9Z" fill="#b39359" fill-opacity="1" data-original-color="#000000ff" stroke="none" stroke-opacity="1"/><path d="M34,36a.75.75,0,0,0-.75.75v2.5h9.875a1.625,1.625,0,0,0,0-3.25Z" fill="#b39359" fill-opacity="1" data-original-color="#000000ff" stroke="none" stroke-opacity="1"/><path d="M46.75,33.75V32a.75.75,0,0,0-.75-.75H36.875a1.625,1.625,0,0,0,0,3.25H46A.75.75,0,0,0,46.75,33.75Z" fill="#b39359" fill-opacity="1" data-original-color="#000000ff" stroke="none" stroke-opacity="1"/><path d="M16.5,39.25H22v-1.5a.75.75,0,0,0-.75-.75H16.5Z" fill="#b39359" fill-opacity="1" data-original-color="#000000ff" stroke="none" stroke-opacity="1"/><path d="M4,30.25a2,2,0,0,0,2,2H8.5V30.5a3.941,3.941,0,0,1,.076-.75H4Z" fill="#b39359" fill-opacity="1" data-original-color="#000000ff" stroke="none" stroke-opacity="1"/><path d="M30,30.25v-.5H16.424a3.941,3.941,0,0,1,.076.75v1.75H28A2,2,0,0,0,30,30.25Z" fill="#b39359" fill-opacity="1" data-original-color="#000000ff" stroke="none" stroke-opacity="1"/><path d="M15.8,28.25H30v-12a2,2,0,0,0-2-2H6a2,2,0,0,0-2,2v12H9.2a3.994,3.994,0,0,1,6.608,0Z" fill="#b39359" fill-opacity="1" data-original-color="#000000ff" stroke="none" stroke-opacity="1"/><rect x="16.5" y="33.75" width="2.5" height="1.75" fill="#b39359" fill-opacity="1" data-original-color="#000000ff" stroke="none" stroke-opacity="1"/><path d="M63,40.749H16.5V44H63.75V41.5A.75.75,0,0,0,63,40.749Z" fill="#b39359" fill-opacity="1" data-original-color="#000000ff" stroke="none" stroke-opacity="1"/><path d="M.25,41.5V44H8.5v-3.25H1A.75.75,0,0,0,.25,41.5Z" fill="#b39359" fill-opacity="1" data-original-color="#000000ff" stroke="none" stroke-opacity="1"/><path d="M25.5,48H15V30.5a2.5,2.5,0,0,0-5,0v20A2.5,2.5,0,0,0,12.5,53h13a2.5,2.5,0,0,0,0-5Z" fill="#b39359" fill-opacity="1" data-original-color="#000000ff" stroke="none" stroke-opacity="1"/><path d="M24,62.25H19.75V57.041l2.013.67a.749.749,0,0,0,.948-.474h0a.75.75,0,0,0-.474-.949l-2.487-.829V54.5h-1.5v7.75H14a.75.75,0,0,0,0,1.5H24a.75.75,0,0,0,0-1.5Z" fill="#b39359" fill-opacity="1" data-original-color="#000000ff" stroke="none" stroke-opacity="1"/></g></svg>