<svg enable-background="new 0 0 32 32" viewBox="0 0 32 32" xmlns="http://www.w3.org/2000/svg" width="300" height="300" version="1.1" xmlns:xlink="http://www.w3.org/1999/xlink" xmlns:svgjs="http://svgjs.dev/svgjs"><g width="100%" height="100%" transform="matrix(1,0,0,1,0,0)"><g id="grid"/><g id="Layer_2"/><g id="Layer_3"/><g id="Layer_4"/><g id="Layer_5"/><g id="Layer_6"/><g id="Layer_7"/><g id="Layer_8"/><g id="Layer_9"/><g id="Layer_10"/><g id="Layer_11"/><g id="Layer_12"/><g id="Layer_13"/><g id="Layer_14"/><g id="Layer_15"/><g id="Layer_16"/><g id="Layer_17"/><g id="Layer_18"/><g id="Layer_19"/><g id="Layer_20"/><g id="Layer_21"/><g id="Layer_22"/><g id="Layer_23"/><g id="Layer_24"/><g id="Layer_25"/><g id="Layer_26"/><g id="Layer_27"/><g id="Layer_28"/><g id="Layer_29"/><g id="Layer_30"/><g id="Layer_31"/><g id="Layer_32"/><g id="Layer_33"/><g id="Layer_34"/><g id="Layer_35"/><g id="Layer_36"/><g id="Layer_37"/><g id="Layer_38"/><g id="Layer_39"/><g id="Layer_40"/><g id="Layer_41"/><g id="Layer_42"/><g id="Layer_43"/><g id="Layer_44"/><g id="Layer_45"/><g id="Layer_46"/><g id="Layer_47"/><g id="Layer_48"/><g id="Layer_49"/><g id="Layer_50"/><g id="Layer_51"/><g id="Layer_52"><path d="m27.791 6.459c-.1836-.2861-.501-.459-.8408-.459h-6.9502c-1.6543 0-3 1.3457-3 3v7c0 1.6543 1.3457 3 3 3h1.9854c-.9287 2.6895-1.7217 3.9775-4.3604 5.0771-.4404.1836-.6895.6523-.5957 1.1201.0937.4669.5039.8028.9805.8028h.002c5.5049-.0098 8.667-2.2168 10.9092-7.6113.7157-1.6944 1.079-3.5078 1.079-5.3887 0-2.8926-.875-4.4678-2.209-6.541z" fill="#0b2c3d" fill-opacity="1" data-original-color="#000000ff" stroke="none" stroke-opacity="1"/><path d="m11.9502 6h-6.9502c-1.6543 0-3 1.3457-3 3v7c0 1.6543 1.3457 3 3 3h1.9854c-.9287 2.6895-1.7217 3.9775-4.3604 5.0771-.4404.1836-.6895.6523-.5957 1.1201.0937.4669.5039.8028.9805.8028h.002c5.5049-.0098 8.667-2.2168 10.9092-7.6113.7157-1.6944 1.079-3.5078 1.079-5.3887 0-2.8926-.875-4.4678-2.209-6.541-.1836-.2861-.501-.459-.8408-.459z" fill="#0b2c3d" fill-opacity="1" data-original-color="#000000ff" stroke="none" stroke-opacity="1"/></g><g id="Layer_53"/><g id="Layer_54"/><g id="Layer_55"/><g id="Layer_56"/><g id="Layer_57"/><g id="Layer_58"/><g id="Layer_59"/><g id="Layer_60"/><g id="Layer_61"/></g></svg>