<svg clip-rule="evenodd" fill-rule="evenodd" stroke-linejoin="round" stroke-miterlimit="2" viewBox="0 0 24 24" xmlns="http://www.w3.org/2000/svg" width="300" height="300" version="1.1" xmlns:xlink="http://www.w3.org/1999/xlink" xmlns:svgjs="http://svgjs.dev/svgjs"><g width="100%" height="100%" transform="matrix(1,0,0,1,0,0)"><g id="Icon"><path d="m5.383 14.58c-2.354-.456-4.133-2.53-4.133-5.016 0-2.82 2.289-5.109 5.109-5.109s5.109 2.289 5.109 5.109c0 3.758-1.266 6.092-2.752 7.551-2.275 2.234-5.124 2.428-5.124 2.428-.29.021-.565-.128-.707-.381-.143-.252-.126-.565.042-.801 0 0 1.354-1.906 2.198-3.316.088-.148.177-.311.258-.465z" fill="#945698" fill-opacity="1" data-original-color="#000000ff" stroke="none" stroke-opacity="1"/><path d="m16.665 14.58c-2.354-.456-4.133-2.53-4.133-5.016 0-2.82 2.289-5.109 5.109-5.109s5.109 2.289 5.109 5.109c0 3.758-1.266 6.092-2.752 7.551-2.275 2.234-5.124 2.428-5.124 2.428-.29.021-.565-.128-.707-.381-.142-.252-.126-.565.042-.801 0 0 1.354-1.906 2.198-3.316.088-.148.177-.311.258-.465z" fill="#945698" fill-opacity="1" data-original-color="#000000ff" stroke="none" stroke-opacity="1"/></g></g></svg>