<svg xmlns="http://www.w3.org/2000/svg" viewBox="0 0 64 64" width="300" height="300" version="1.1" xmlns:xlink="http://www.w3.org/1999/xlink" xmlns:svgjs="http://svgjs.dev/svgjs"><g width="100%" height="100%" transform="matrix(1,0,0,1,0,0)"><g id="Layer_50" data-name="Layer 50"><path d="M24.99375,28.96883a.19029.19029,0,0,1,.0992.16534v2.50109a.18691.18691,0,0,1-.27556.16433L16.16579,27.081a.76884.76884,0,0,0-.7375,0L6.7767,31.79859a.1865.1865,0,0,1-.27656-.16333V29.13417a.18963.18963,0,0,1,.09719-.16433l9.11053-4.96711a.1905.1905,0,0,1,.17837,0ZM2.5,57.9087A3.59566,3.59566,0,0,0,6.0913,61.5h23.087V53.9276H2.5Zm26.67826-9.62458H2.5V17.8913H29.17826ZM26.63208,29.13417a1.728,1.728,0,0,0-.89883-1.51508L16.62473,22.652a1.72218,1.72218,0,0,0-1.65537,0l-9.11153,4.9681A1.72734,1.72734,0,0,0,4.961,29.13417v2.50109A1.72456,1.72456,0,0,0,7.50217,33.1546v6.67432a1.751,1.751,0,0,0,1.74956,1.74856H22.34236a1.75079,1.75079,0,0,0,1.74855-1.74856V33.15529a1.72519,1.72519,0,0,0,2.54117-1.52ZM34.82174,61.5h23.087A3.59566,3.59566,0,0,0,61.5,57.9087V53.9276H34.82174ZM52.75421,40.69068a4.53572,4.53572,0,0,0-4.46007,3.76565H57.2243A4.5431,4.5431,0,0,0,52.75421,40.69068ZM61.5,6.0913V25.54587H34.82174V2.5h23.087A3.59566,3.59566,0,0,1,61.5,6.0913ZM59.16726,9.861a1.72563,1.72563,0,0,0-.89883-1.51508L49.1599,3.37879a1.7202,1.7202,0,0,0-1.65436,0L38.395,8.34589A1.72761,1.72761,0,0,0,37.49618,9.861v2.50109a1.72084,1.72084,0,0,0,2.54117,1.5194v6.67426a1.751,1.751,0,0,0,1.74956,1.74856H54.87753a1.7508,1.7508,0,0,0,1.74856-1.74856V13.882a1.72513,1.72513,0,0,0,2.54117-1.52ZM9.0413,32.31708v7.51184a.2102.2102,0,0,0,.21043.20943h3.72358V36.913a1.75078,1.75078,0,0,1,1.74855-1.74855h2.14637A1.75078,1.75078,0,0,1,18.61878,36.913v3.12536h3.72358a.21.21,0,0,0,.20942-.20943V32.31733L15.797,28.63315ZM13.61561,2.5H6.0913A3.59566,3.59566,0,0,0,2.5,6.0913v6.15653H13.61561Zm3.25462,34.20357H14.72386a.21.21,0,0,0-.20942.20942v3.12536h2.56521V36.913A.21.21,0,0,0,16.87023,36.70357ZM29.17826,2.5H19.25909v9.74783h9.91917ZM41.57648,13.04388v7.51184a.21019.21019,0,0,0,.21043.20943h3.72357V17.63979A1.75078,1.75078,0,0,1,47.259,15.89124H49.4054A1.75079,1.75079,0,0,1,51.154,17.63979v3.12536h3.72357a.21.21,0,0,0,.20943-.20943V13.04413L48.33222,9.36ZM33.28261,26.31544V2.5H30.71739V13.01739a.76976.76976,0,0,1-.76956.76957H18.48952a.76976.76976,0,0,1-.76956-.76957V2.5H15.15474V13.01739a.76976.76976,0,0,1-.76957.76957H2.5v2.56521H29.94783a.76976.76976,0,0,1,.76956.76957v31.932a.76976.76976,0,0,1-.76956.76956H2.5v2.56522H29.94783a.76976.76976,0,0,1,.76956.76956V61.5h2.56522V53.158a.76976.76976,0,0,1,.76956-.76956H61.5V49.82325H34.05217a.76976.76976,0,0,1-.76956-.76956V30.41979a.76976.76976,0,0,1,.76956-.76957H39.2654a4.03113,4.03113,0,0,1,4.70751,0H61.5V27.085H34.05217A.76976.76976,0,0,1,33.28261,26.31544ZM48.4214,4.72953a.18564.18564,0,0,0-.17736,0L39.13351,9.69664a.18856.18856,0,0,0-.0982.16433v2.50109a.18039.18039,0,0,0,.09118.16032.18575.18575,0,0,0,.18538.004l8.6516-4.71859a.76884.76884,0,0,1,.7375,0l8.65159,4.71859a.18691.18691,0,0,0,.27556-.16433V9.861a.18657.18657,0,0,0-.09819-.16433Zm.984,12.70084H47.259a.21.21,0,0,0-.20943.20942v3.12536h2.56522V17.63979A.21.21,0,0,0,49.4054,17.43037ZM42.87211,39.15255a1.98373,1.98373,0,0,0,1.958-2.30168l-.69642-4.28071a2.54753,2.54753,0,0,0-5.02923,0L38.409,36.85087a1.98349,1.98349,0,0,0,1.957,2.30168Zm2.40759-7.9632H61.5V48.28412H34.82174V31.18935h3.13669a4.09041,4.09041,0,0,0-.37307,1.13431L36.89,36.60436A3.52122,3.52122,0,0,0,40.366,40.69168h.484v4.14743a.76957.76957,0,1,0,1.53913,0V40.69168h.483a3.52282,3.52282,0,0,0,3.47707-4.08732l-.69641-4.2807A4.09073,4.09073,0,0,0,45.2797,31.18935ZM46.68988,45.2259a.76977.76977,0,0,0,.76956.76957H58.059a.76977.76977,0,0,0,.76957-.76957,6.06935,6.06935,0,1,0-12.13869,0Z" fill="#b39359" fill-opacity="1" data-original-color="#000000ff" stroke="none" stroke-opacity="1"/></g></g></svg>