<?xml version="1.0" encoding="UTF-8"?>
<svg xmlns="http://www.w3.org/2000/svg" xmlns:xlink="http://www.w3.org/1999/xlink" version="1.1" id="Capa_1" x="0px" y="0px" viewBox="0 0 512 512" style="enable-background:new 0 0 512 512;" xml:space="preserve" width="512" height="512">
<g>
	<path style="fill:none;stroke:#000000;stroke-width:15;stroke-linecap:round;stroke-linejoin:round;stroke-miterlimit:10;" d="&#10;&#9;&#9;M32.099,439.726H14.061c-3.624,0-6.561-2.938-6.561-6.561V78.835c0-3.624,2.938-6.561,6.561-6.561h18.037&#10;&#9;&#9;c3.624,0,6.561,2.938,6.561,6.561v354.33C38.66,436.789,35.722,439.726,32.099,439.726z"/>
	<path style="fill:none;stroke:#000000;stroke-width:15;stroke-linecap:round;stroke-linejoin:round;stroke-miterlimit:10;" d="&#10;&#9;&#9;M497.939,439.726h-18.037c-3.624,0-6.561-2.938-6.561-6.561V209.323c0-3.624,2.938-6.561,6.561-6.561h18.037&#10;&#9;&#9;c3.624,0,6.561,2.938,6.561,6.561v223.842C504.5,436.789,501.562,439.726,497.939,439.726z"/>
	
		<polyline style="fill:none;stroke:#000000;stroke-width:15;stroke-linecap:round;stroke-linejoin:round;stroke-miterlimit:10;" points="&#10;&#9;&#9;95.323,354.74 38.66,354.74 38.66,310.001 473.34,310.001 473.34,354.74 130.543,354.74 &#9;"/>
	<path style="fill:none;stroke:#000000;stroke-width:15;stroke-linecap:round;stroke-linejoin:round;stroke-miterlimit:10;" d="&#10;&#9;&#9;M446.46,231.58c14.85,0,26.88,12.03,26.88,26.87V310H291.66h-40.65H38.66v-51.55c0-14.84,12.03-26.87,26.88-26.87h185.47"/>
	<path style="fill:none;stroke:#000000;stroke-width:15;stroke-linecap:round;stroke-linejoin:round;stroke-miterlimit:10;" d="&#10;&#9;&#9;M385.018,231.576h-93.359v78.425H473.34v-51.547c0-14.844-12.034-26.878-26.878-26.878h-26.284"/>
	<path style="fill:none;stroke:#000000;stroke-width:15;stroke-linecap:round;stroke-linejoin:round;stroke-miterlimit:10;" d="&#10;&#9;&#9;M291.659,310.001v-87.559c0-6.085-4.933-11.018-11.018-11.018h-18.614c-6.085,0-11.018,4.933-11.018,11.018v87.559H291.659z"/>
	<path style="fill:none;stroke:#000000;stroke-width:15;stroke-linecap:round;stroke-linejoin:round;stroke-miterlimit:10;" d="&#10;&#9;&#9;M69.47,310H38.66v-51.55V96.48c17.02,0,30.81,13.8,30.81,30.81v104.29"/>
	<path style="fill:none;stroke:#000000;stroke-width:15;stroke-linecap:round;stroke-linejoin:round;stroke-miterlimit:10;" d="&#10;&#9;&#9;M188.998,231.576h-58.011c-10.132,0-19.707-4.633-25.995-12.577l-9.669-12.216l9.669-12.216&#10;&#9;&#9;c6.288-7.944,15.863-12.577,25.995-12.577h58.011c10.132,0,19.707,4.633,25.995,12.577l9.669,12.216l-9.669,12.216&#10;&#9;&#9;C208.705,226.943,199.13,231.576,188.998,231.576z"/>
	<path style="fill:none;stroke:#000000;stroke-width:15;stroke-linecap:round;stroke-linejoin:round;stroke-miterlimit:10;" d="&#10;&#9;&#9;M188.998,182.172h-58.011c-10.132,0-19.707-4.633-25.995-12.577l-9.669-12.216l9.669-12.216&#10;&#9;&#9;c6.288-7.944,15.863-12.577,25.995-12.577h58.011c10.132,0,19.707,4.633,25.995,12.577l9.669,12.216l-9.669,12.216&#10;&#9;&#9;C208.705,177.539,199.13,182.172,188.998,182.172z"/>
	
		<line style="fill:none;stroke:#000000;stroke-width:15;stroke-linecap:round;stroke-linejoin:round;stroke-miterlimit:10;" x1="95.323" y1="354.74" x2="38.66" y2="404.576"/>
	
		<line style="fill:none;stroke:#000000;stroke-width:15;stroke-linecap:round;stroke-linejoin:round;stroke-miterlimit:10;" x1="416.677" y1="354.74" x2="473.34" y2="404.576"/>
</g>















</svg>
