<svg id="Layer_1" enable-background="new 0 0 24 24" viewBox="0 0 24 24" xmlns="http://www.w3.org/2000/svg" width="300" height="300" version="1.1" xmlns:xlink="http://www.w3.org/1999/xlink" xmlns:svgjs="http://svgjs.dev/svgjs"><g width="100%" height="100%" transform="matrix(1,0,0,1,0,0)"><path d="m10.71 9.013c-.06-.11-.13-.2-.22-.29l-2.12-2.11c-.15-.15-.15-.39 0-.53.15-.15.38-.15.53 0l2.12 2.11c.23.23.4.51.5.82.01.02.01.03.01.05.03.08.05.17.07.25.02.11.03.23.03.34 0 .42 0 .94.01 1.45 0 .21.17.37.38.37s.38-.16.38-.37c.01-.51.01-1.03.01-1.45 0-.11.01-.23.03-.34.02-.08.04-.17.07-.25 0-.02 0-.03.01-.05.1-.31.27-.59.5-.82l2.12-2.11c.15-.15.38-.15.53 0 .15.14.15.38 0 .53l-2.12 2.11c-.09.09-.16.18-.22.29 2.6-.21 4.82-2.16 5.26-4.83l.29-1.74c.02-.12-.02-.24-.11-.32-.08-.09-.21-.13-.33-.11l-1.74.29c-2.387.396-4.173 2.209-4.68 4.45-.507-2.241-2.293-4.053-4.68-4.45l-1.74-.29c-.12-.02-.25.02-.33.11-.09.08-.13.2-.11.32l.29 1.74c.44 2.67 2.66 4.62 5.26 4.83z" fill="#b39359" fill-opacity="1" data-original-color="#000000ff" stroke="none" stroke-opacity="1"/><path d="m12 19.793c-.06 0-.11-.02-.17-.04l-9.45-4.73v.8l.18.09c.12.06.17.21.11.34-.04.08-.13.13-.22.13-.03 0-.05-.01-.07-.01v.81l9.62 4.81 9.62-4.81v-.81c-.02 0-.04.01-.07.01-.09 0-.18-.05-.22-.13-.06-.13-.01-.28.11-.34l.18-.09v-.8l-9.45 4.73c-.06.02-.11.04-.17.04zm-7.67-2.72c-.05.09-.14.14-.23.14-.04 0-.07-.01-.11-.03l-.83-.41c-.12-.06-.17-.21-.11-.33.06-.13.21-.18.34-.12l.82.42c.13.06.18.21.12.33zm1.65.83c-.04.09-.13.14-.22.14-.04 0-.08-.01-.11-.03l-.83-.41c-.12-.06-.17-.21-.11-.34.06-.12.21-.17.33-.11l.83.42c.12.06.17.21.11.33zm1.66.83c-.05.09-.13.14-.23.14-.03 0-.07-.01-.11-.03l-.83-.41c-.12-.07-.17-.22-.11-.34s.21-.17.34-.11l.83.41c.12.07.17.22.11.34zm1.65.83c-.04.08-.13.13-.22.13-.04 0-.08 0-.11-.02l-.83-.42c-.12-.06-.17-.21-.11-.33s.21-.18.33-.11l.83.41c.12.06.17.21.11.34zm1.66.82c-.05.09-.13.14-.22.14-.04 0-.08-.01-.12-.02l-.82-.42c-.13-.06-.18-.21-.12-.33.07-.13.22-.18.34-.12l.83.42c.12.06.17.21.11.33zm8.84-3.64.82-.42c.12-.06.28-.01.34.12.06.12.01.27-.11.33l-.83.42c-.04.01-.08.02-.11.02-.1 0-.18-.05-.23-.14-.06-.12-.01-.27.12-.33zm-1.66.83.83-.42c.12-.06.27-.01.33.11.06.13.01.28-.11.34l-.83.41c-.03.02-.07.03-.11.03-.09 0-.18-.05-.22-.14-.06-.12-.01-.27.11-.33zm-1.66.82.83-.41c.12-.06.28-.01.34.11.06.13.01.28-.12.34l-.82.41c-.04.02-.08.03-.11.03-.1 0-.18-.05-.23-.14-.06-.12-.01-.27.11-.34zm-1.65.83.83-.41c.12-.06.27-.01.33.11s.01.27-.11.33l-.83.42c-.03.02-.07.03-.11.03-.09 0-.18-.06-.22-.14-.07-.13-.02-.28.11-.34zm-1.66.83.83-.41c.12-.07.27-.02.34.11.06.12.01.27-.12.33l-.82.42c-.04.01-.08.02-.12.02-.09 0-.18-.05-.22-.14-.06-.12-.01-.27.11-.33zm-.49.52c.06.13.01.28-.11.34l-.45.22c-.03.02-.07.03-.11.03s-.08-.01-.11-.03l-.45-.22c-.12-.06-.17-.21-.11-.34.06-.12.21-.17.33-.11l.34.17.34-.17c.12-.06.27-.01.33.11z" fill="#b39359" fill-opacity="1" data-original-color="#000000ff" stroke="none" stroke-opacity="1"/><path d="m12.17 16.753c-.11.05-.23.05-.34 0l-9.45-4.73v2.16l9.62 4.81 9.62-4.81v-2.16z" fill="#b39359" fill-opacity="1" data-original-color="#000000ff" stroke="none" stroke-opacity="1"/><path d="m21.16 11.413-5.02-2.51c-.82.47-1.75.77-2.75.86l-.23.02c0 .4 0 .87-.01 1.34 0 .33-.16.63-.4.83.54-.12.87-.36.87-.54 0-.21.17-.38.38-.38s.38.17.38.38c0 .78-1.03 1.38-2.38 1.38s-2.38-.6-2.38-1.38c0-.21.17-.38.38-.38s.38.17.38.38c0 .19.35.44.93.56-.26-.21-.42-.52-.42-.87-.01-.45-.01-.92-.01-1.32l-.23-.02c-1.01-.09-1.95-.39-2.77-.88l-5.04 2.53 9.16 4.58z" fill="#b39359" fill-opacity="1" data-original-color="#000000ff" stroke="none" stroke-opacity="1"/></g></svg>