<svg id="Layer_1" viewBox="0 0 512 512" xmlns="http://www.w3.org/2000/svg" data-name="Layer 1" width="300" height="300" version="1.1" xmlns:xlink="http://www.w3.org/1999/xlink" xmlns:svgjs="http://svgjs.dev/svgjs"><g width="100%" height="100%" transform="matrix(1,0,0,1,0,0)"><path d="m198.078 66.758a271.762 271.762 0 0 0 140.449 64.611c-4.613 5.177-9.046 10.518-13.573 15.79-7.013-1.245-14.015-2.594-21.025-3.618-9.1-1.329-18.318-1.617-25.729 4.882-7.234 6.343-8.342 15.364-8.633 24.369-.232 7.172-.188 14.353-.27 21.542-6.173 3.554-12.4 7.022-18.432 10.744-7.826 4.831-15.072 10.535-16.572 20.278-1.463 9.508 3.487 17.132 9.052 24.217 4.432 5.642 9.081 11.116 13.64 16.675l-.566 1.544a96.99 96.99 0 0 0 -122.419 4.681l-2.814-1.3a80.121 80.121 0 0 0 -76.7 5.379c-16.886-43.642-24.124-91.609-20.231-142.847a271.761 271.761 0 0 0 163.823-66.947zm102.522 352.755-10.889-51.37-51.37 10.889 39.607-60.916 21.815 4.114c2 5.267 3.584 9.694 4.959 13.528 5.511 15.361 8.242 22.97 15.938 25.707 6.079 2.162 11.765-.028 21-5.1zm61.982-83.967c47.424 26.084 36.223 29.5 56.631-21.087 53.1-10.5 46.715-.682 29.828-52.556 33.924-42.174 35.348-30.549-10.932-59.433-1.122-54.114 7.441-46.123-46.577-38.5-35.643-40.732-23.948-40.115-60.429.446-53.486-8.292-44.13-15.338-46 39.184-46.3 28.028-43.664 16.618-10.054 59.588-17.454 51.233-22.768 40.8 30.6 52.109 19.562 50.466 8.783 45.888 56.937 20.25zm-42.182-83.427 21.056 21.066a7.982 7.982 0 0 0 11.157.157l46.7-44.5a7.98 7.98 0 0 0 -11-11.563l-41.066 39.131-15.534-15.541a7.977 7.977 0 1 0 -11.313 11.25zm41.5-80.207a72.075 72.075 0 1 0 72.074 72.075 72.077 72.077 0 0 0 -72.074-72.075zm39.651 32.423a56.076 56.076 0 1 0 0 79.3 56.079 56.079 0 0 0 0-79.3zm22.189 214.7-40.682-62.568c9 4.994 14.619 7.046 20.679 4.79 7.49-2.789 10.24-10.236 15.687-24.992 1.579-4.278 3.423-9.274 5.586-14.784l21.409-3.8 39.581 60.87-51.37-10.89-10.889 51.37zm-326.005-232.406a28.323 28.323 0 1 0 28.323 28.322 28.323 28.323 0 0 0 -28.323-28.322zm100.343-35.894a35.894 35.894 0 1 0 35.894 35.894 35.894 35.894 0 0 0 -35.894-35.894zm0 105.554a89.011 89.011 0 0 0 -88.578 80.326h137.338l10.8-16.608a22.2 22.2 0 0 1 -7.526-7.5c-5.114-8.427-3.229-17.454-.34-26.185 1.18-3.568 2.45-7.117 3.748-10.663a88.622 88.622 0 0 0 -55.441-19.374zm-100.343 15.584a72.115 72.115 0 0 0 -71.735 64.742h75.523q0-.372.035-.75a96.689 96.689 0 0 1 26.282-57.421 71.814 71.814 0 0 0 -30.105-6.571zm143.9 72.741h-150.687c27.267 38.868 63.482 72.77 107.13 100.628a401.156 401.156 0 0 0 69.922-56.142l-64.127 13.593 37.763-58.079zm-143.9-165.984a36.322 36.322 0 1 0 36.322 36.321 36.325 36.325 0 0 0 -36.322-36.321zm100.343-35.894a43.893 43.893 0 1 0 43.893 43.893 43.9 43.9 0 0 0 -43.893-43.893z" fill-rule="evenodd" fill="#b39359" fill-opacity="1" data-original-color="#000000ff" stroke="none" stroke-opacity="1"/></g></svg>