<svg id="Layer_1" enable-background="new 0 0 500 500" viewBox="0 0 500 500" xmlns="http://www.w3.org/2000/svg" width="300" height="300" version="1.1" xmlns:xlink="http://www.w3.org/1999/xlink" xmlns:svgjs="http://svgjs.dev/svgjs"><g width="100%" height="100%" transform="matrix(1,0,0,1,0,0)"><path clip-rule="evenodd" d="m130.257 356.854h-87.359c-.813 0-1.184-1.014-.563-1.539l49.924-42.19c.415-.351.415-.983 0-1.333l-49.924-42.19c-.621-.525-.25-1.539.563-1.539h57.599c.43 0 .789.304.861.728 5.142 30.532 15.198 59.868 29.668 86.778.313.583-.107 1.285-.769 1.285zm259.098-144.874-.744-21.755c-.016-.454-.374-.819-.828-.842l-21.741-1.104c-21.545-1.092-49.006-8.206-64.332-24.516-.171-.182-.386-.275-.635-.275h-102.149c-.25 0-.464.094-.635.275-15.329 16.31-42.786 23.424-64.332 24.516l-21.741 1.102c-.454.023-.813.387-.828.842l-.745 21.758c-3.243 95.864 43.953 187.633 126.791 236.935l12.118 7.214c.282.168.61.168.893 0l12.118-7.214c82.865-49.319 129.998-141.03 126.79-236.936zm-228.876 98.363 16.159-24.145c.267-.399.81-.507 1.209-.241l59.169 39.445c.335.224.766.193 1.066-.076l112.571-100.734c5.313-4.803 11.703-3.044-4.359 17.452l-111.367 142.117c-.323.412-.932.45-1.303.08l-73.036-72.795c-.298-.297-.343-.753-.109-1.103zm30.705-160.406c.081-23.825 14.519-44.426 35.066-53.571.304-.135.635-.093.896.113 13.392 10.588 32.316 10.588 45.707-.001.261-.206.592-.248.896-.113 20.657 9.194 35.067 29.879 35.067 53.863 0 .528-.679 1.427-1.684.423-.17-.17-.377-.256-.617-.256h-113.69c-.837.904-1.643.171-1.641-.458zm58.816-106.191c13.138 0 23.788 10.649 23.788 23.788s-10.649 23.79-23.788 23.79c-13.138 0-23.79-10.652-23.79-23.79 0-13.139 10.652-23.788 23.79-23.788zm-126.757 106.89c0-14.822 7.85-27.9 19.598-35.28.304-.191.671-.182.965.024 12.633 8.843 29.499 8.842 42.134.001.419-.293.768-.149 1.121.075-5.71 10.298-8.969 22.125-8.969 34.683v12.452c0 .321-.159.597-.437.757-13.235 7.609-30.732 11.165-44.358 11.855l-9.136.463c-.502.025-.917-.369-.917-.871v-24.159zm41.629-89.209c13.139 0 23.79 10.652 23.79 23.79s-10.652 23.787-23.79 23.787-23.788-10.649-23.788-23.787c.001-13.138 10.65-23.79 23.788-23.79zm148.067 54.028c.343-.216.689-.271 1.041-.024 12.682 8.89 29.612 8.893 42.292-.001.294-.206.663-.216.967-.024 11.703 7.39 19.517 20.441 19.517 35.229v24.159c0 .502-.415.897-.917.872l-9.135-.464c-13.624-.692-31.124-4.248-44.359-11.855-.278-.16-.438-.435-.438-.757v-12.452c.002-12.557-3.258-24.384-8.968-34.683zm22.186-54.028c13.138 0 23.79 10.652 23.79 23.79s-10.652 23.787-23.79 23.787c-13.136 0-23.788-10.649-23.788-23.787s10.652-23.79 23.788-23.79zm34.618 295.427c-.662 0-1.082-.702-.769-1.286 14.47-26.91 24.527-56.246 29.668-86.778.072-.424.431-.728.861-.728h57.599c.813 0 1.184 1.014.563 1.539l-49.924 42.19c-.415.351-.415.982 0 1.333l49.924 42.19c.621.525.25 1.539-.563 1.539h-87.359z" fill-rule="evenodd" fill="#32428b" fill-opacity="1" data-original-color="#000000ff" stroke="none" stroke-opacity="1"/></g></svg>