<svg id="Layer_1" enable-background="new 0 0 512 512" viewBox="0 0 512 512" xmlns="http://www.w3.org/2000/svg" width="300" height="300" version="1.1" xmlns:xlink="http://www.w3.org/1999/xlink" xmlns:svgjs="http://svgjs.dev/svgjs"><g width="100%" height="100%" transform="matrix(1,0,0,1,0,0)"><path d="m356.73 216.89v65.96h106.55l-31.8-65.96zm-190.63 65.96v-65.96h-74.75l-31.83 65.96zm-31.26-138.98 25 15.08 101.56-85.46 101.6 85.46 24.97-15.08-126.57-102.73zm255.09 10.52-27.86 16.81-5.33-4.51v40.2h74.24v-52.5zm-66.79-75.97 81.27 65.96h58.88l-31.8-65.96zm-204.74 65.96 81.3-65.96h-108.37l-31.8 65.96zm39.31 24.98-24.83-14.97h-41.04v52.5h74.27v-40.2l-5.36 4.51zm145.28 268.38v-117.01h-83.17v117.01zm-46.57-233.52h-37.42v33.9h37.42zm9.97 33.9h37.45v-33.9h-37.45zm0 9.98v33.9h37.45v-33.9zm-9.97 33.9v-33.9h-37.42v33.9zm57.4-38.89v43.88c0 2.75-2.24 4.99-4.99 4.99h-94.85c-2.75 0-4.99-2.24-4.99-4.99v-87.76c0-2.75 2.24-4.99 4.99-4.99h94.85c2.75 0 4.99 2.24 4.99 4.99zm-38.38-106.44c-12.47-12.44-33.85-3.57-33.85 14.03s21.37 26.48 33.85 14c7.73-7.73 7.73-20.26 0-28.03zm-14.04-15.79c16.47 0 29.82 13.35 29.82 29.82s-13.35 29.82-29.82 29.82-29.82-13.35-29.82-29.82 13.36-29.82 29.82-29.82zm-136.28 53.86h-13.21v11.79h13.21zm-18.23-10h23.22c2.78 0 5.02 2.24 5.02 4.99v21.8c0 2.78-2.24 5.02-5.02 5.02h-23.22c-2.75 0-4.99-2.24-4.99-5.02v-21.8c0-2.76 2.24-4.99 4.99-4.99zm304.04 10h-13.24v11.79h13.24zm-18.22-10h23.22c2.75 0 4.99 2.24 4.99 4.99v21.8c0 2.78-2.24 5.02-4.99 5.02h-23.22c-2.75 0-4.99-2.24-4.99-5.02v-21.8c0-2.76 2.24-4.99 4.99-4.99zm-253.17 155.42h-24.15v21.6h24.15zm-29.17-10.01h34.16c2.78 0 4.99 2.24 4.99 5.02v31.58c0 2.78-2.21 5.02-4.99 5.02h-34.16c-2.75 0-4.99-2.24-4.99-5.02v-31.58c.01-2.78 2.25-5.02 4.99-5.02zm297.08 10.01h-24.18v21.6h24.18zm-29.17-10.01h34.16c2.75 0 4.99 2.24 4.99 5.02v31.58c0 2.78-2.24 5.02-4.99 5.02h-34.16c-2.75 0-4.99-2.24-4.99-5.02v-31.58c0-2.78 2.24-5.02 4.99-5.02zm-333.84 169.57h433.93v-31.97h-433.93zm134.56-41.98c9.16 0 14.06-11.2 7.4-17.86-3.77-3.74-7.06-2.83-10.01-3.09-2.75-.26-4.79-2.66-4.54-5.41.99-11.65-10.63-19.84-21.06-15.62-4.17 1.67-4.56 3.54-6.69 4.31-2.61.94-5.47-.43-6.41-3.03-3.15-8.84-10.35-11.91-19.42-11.91-7.65 0-14.37 4.82-16.92 11.91-1.22 3.37-5.53 4.45-8.16 1.93-9.64-9.3-26.02-2.61-26.02 11.03l.06 1.81c0 2.78-2.24 4.99-4.99 4.99-3.71 0-6.55.06-9.55 3.09-6.66 6.66-1.79 17.86 7.37 17.86h118.94zm-2.92-43.88c3.03 3.66 5.07 8.19 5.64 13.12 14.43 1.96 22.42 18.11 14.85 30.76h13.24v-122.03c0-2.75 2.24-4.99 5.02-4.99h93.15c2.78 0 5.02 2.24 5.02 4.99v122.03h33.73v-279.44l-85.33-71.8-85.32 71.8zm-84.24-7.43 3 1.42c5.1-7.82 13.86-12.73 23.44-12.73 10.66 0 20.32 3.66 26.02 12.7 6.69-3.71 14.71-4.2 21.8-1.3v-93.66h-74.26zm377.68 51.31c5.92 0 9.1-7.23 4.76-11.57-2.49-2.49-4.76-1.84-6.86-2.01-2.75-.23-4.79-2.66-4.56-5.41.28-3.03-.74-5.9-2.69-8.05-3.97-4.34-11-4.48-14.85-.65-2.98 2.98-7.23 1.53-8.36-1.7-2.21-6.21-7.2-8.28-13.66-8.28-5.36 0-10.01 3.34-11.79 8.28-1.19 3.37-5.53 4.45-8.16 1.9-7-6.75-18.65-1.08-17.77 8.42.28 3.03-2.01 5.53-4.96 5.53-2.49 0-4.39-.06-6.44 1.98-4.34 4.34-1.16 11.57 4.76 11.57 30.18-.01 60.4-.01 90.58-.01zm-105.93 0c-4.39-9.89 1.7-21.26 12.22-23.27 2.21-13.41 16.84-21.15 29.23-15.05 6.07-8.39 16.07-10.97 25.94-8.45v-98.11h-74.24v144.88z" fill="#b39359" fill-opacity="1" data-original-color="#000000ff" stroke="none" stroke-opacity="1"/></g></svg>