<svg id="Layer_3" enable-background="new 0 0 64 64" height="300" viewBox="0 0 64 64" width="300" xmlns="http://www.w3.org/2000/svg" version="1.1" xmlns:xlink="http://www.w3.org/1999/xlink" xmlns:svgjs="http://svgjs.dev/svgjs"><g width="100%" height="100%" transform="matrix(1,0,0,1,0,0)"><g><g><path d="m26 30.201v8.799h2v-5c0-.553.447-1 1-1h6c.553 0 1 .447 1 1v5h2v-8.799l-6-4.909z" fill="#32428b" fill-opacity="1" data-original-color="#000000ff" stroke="none" stroke-opacity="1"/><path d="m30 35h4v4h-4z" fill="#32428b" fill-opacity="1" data-original-color="#000000ff" stroke="none" stroke-opacity="1"/><path d="m32 18c-7.72 0-14 6.28-14 14s6.28 14 14 14 14-6.28 14-14-6.28-14-14-14zm10.367 15.774-2.367-1.936v8.162c0 .553-.447 1-1 1h-14c-.553 0-1-.447-1-1v-8.162l-2.367 1.937-1.266-1.549 11-9c.367-.301.898-.301 1.266 0l11 9z" fill="#32428b" fill-opacity="1" data-original-color="#000000ff" stroke="none" stroke-opacity="1"/><path d="m57 4.414v2.586h2.586z" fill="#32428b" fill-opacity="1" data-original-color="#000000ff" stroke="none" stroke-opacity="1"/><path d="m56 9c-.553 0-1-.447-1-1v-5h-6v16h12v-10zm1 9h-7v-2h7zm0-3h-7v-2h7zm0-3h-7v-2h7zm3 6h-2v-2h2zm0-3h-2v-2h2z" fill="#32428b" fill-opacity="1" data-original-color="#000000ff" stroke="none" stroke-opacity="1"/><path d="m55 50v-5h-6v16h12v-10h-5c-.553 0-1-.447-1-1zm2 10h-7v-2h7zm0-3h-7v-2h7zm1-2h2v2h-2zm0 3h2v2h-2zm-1-4h-7v-2h7z" fill="#32428b" fill-opacity="1" data-original-color="#000000ff" stroke="none" stroke-opacity="1"/><path d="m57 49h2.586l-2.586-2.586z" fill="#32428b" fill-opacity="1" data-original-color="#000000ff" stroke="none" stroke-opacity="1"/><path d="m11 4.414v2.586h2.586z" fill="#32428b" fill-opacity="1" data-original-color="#000000ff" stroke="none" stroke-opacity="1"/><path d="m9 8v-5h-6v16h12v-10h-5c-.553 0-1-.447-1-1zm2 10h-7v-2h7zm0-3h-7v-2h7zm1-2h2v2h-2zm0 3h2v2h-2zm-1-4h-7v-2h7z" fill="#32428b" fill-opacity="1" data-original-color="#000000ff" stroke="none" stroke-opacity="1"/><path d="m9 50v-5h-6v16h12v-10h-5c-.553 0-1-.447-1-1zm2 10h-7v-2h7zm0-3h-7v-2h7zm1-2h2v2h-2zm0 3h2v2h-2zm-1-4h-7v-2h7z" fill="#32428b" fill-opacity="1" data-original-color="#000000ff" stroke="none" stroke-opacity="1"/><path d="m11 49h2.586l-2.586-2.586z" fill="#32428b" fill-opacity="1" data-original-color="#000000ff" stroke="none" stroke-opacity="1"/></g><path d="m43.982 21.432 3.018-3.018v-2.828l-4.432 4.432c.5.442.972.914 1.414 1.414z" fill="#32428b" fill-opacity="1" data-original-color="#000000ff" stroke="none" stroke-opacity="1"/><path d="m17 18.414 3.018 3.018c.442-.5.914-.972 1.414-1.414l-4.432-4.432z" fill="#32428b" fill-opacity="1" data-original-color="#000000ff" stroke="none" stroke-opacity="1"/><path d="m20.018 42.568-5.018 5.018 1.414 1.414 5.018-5.018c-.5-.442-.972-.914-1.414-1.414z" fill="#32428b" fill-opacity="1" data-original-color="#000000ff" stroke="none" stroke-opacity="1"/><path d="m47 45.586-3.018-3.018c-.442.5-.914.972-1.414 1.414l4.432 4.432z" fill="#32428b" fill-opacity="1" data-original-color="#000000ff" stroke="none" stroke-opacity="1"/></g></g></svg>